<mxfile host="app.diagrams.net" modified="2024-05-09T22:36:01.573Z" agent="Mozilla/5.0 (Windows NT 10.0; Win64; x64) AppleWebKit/537.36 (KHTML, like Gecko) Chrome/123.0.0.0 Safari/537.36 OPR/109.0.0.0" etag="N1WW7BQlDkBxBSQ-lsHw" version="24.2.8" type="github">
  <diagram id="R2lEEEUBdFMjLlhIrx00" name="Page-1">
    <mxGraphModel dx="1393" dy="766" grid="1" gridSize="10" guides="1" tooltips="1" connect="1" arrows="1" fold="1" page="1" pageScale="1" pageWidth="850" pageHeight="1100" math="0" shadow="0" extFonts="Permanent Marker^https://fonts.googleapis.com/css?family=Permanent+Marker">
      <root>
        <mxCell id="0" />
        <mxCell id="1" parent="0" />
        <mxCell id="C-vyLk0tnHw3VtMMgP7b-12" value="" style="edgeStyle=entityRelationEdgeStyle;endArrow=ERzeroToMany;startArrow=ERone;endFill=1;startFill=0;" parent="1" target="C-vyLk0tnHw3VtMMgP7b-17" edge="1">
          <mxGeometry width="100" height="100" relative="1" as="geometry">
            <mxPoint x="700" y="165" as="sourcePoint" />
            <mxPoint x="460" y="205" as="targetPoint" />
          </mxGeometry>
        </mxCell>
        <mxCell id="XhaWbLBJsU4I6IuAYwKj-48" style="edgeStyle=none;rounded=0;orthogonalLoop=1;jettySize=auto;html=1;exitX=1;exitY=0.5;exitDx=0;exitDy=0;entryX=0;entryY=0.5;entryDx=0;entryDy=0;endArrow=none;endFill=0;" edge="1" parent="1" source="XhaWbLBJsU4I6IuAYwKj-1" target="XhaWbLBJsU4I6IuAYwKj-45">
          <mxGeometry relative="1" as="geometry" />
        </mxCell>
        <mxCell id="XhaWbLBJsU4I6IuAYwKj-52" style="edgeStyle=none;rounded=0;orthogonalLoop=1;jettySize=auto;html=1;exitX=1;exitY=1;exitDx=0;exitDy=0;entryX=0;entryY=0;entryDx=0;entryDy=0;endArrow=none;endFill=0;" edge="1" parent="1" source="XhaWbLBJsU4I6IuAYwKj-1" target="XhaWbLBJsU4I6IuAYwKj-46">
          <mxGeometry relative="1" as="geometry" />
        </mxCell>
        <mxCell id="XhaWbLBJsU4I6IuAYwKj-1" value="Persona" style="whiteSpace=wrap;html=1;align=center;" vertex="1" parent="1">
          <mxGeometry x="180" y="240" width="100" height="40" as="geometry" />
        </mxCell>
        <mxCell id="XhaWbLBJsU4I6IuAYwKj-2" value="Publicación" style="whiteSpace=wrap;html=1;align=center;" vertex="1" parent="1">
          <mxGeometry x="570" y="200" width="100" height="40" as="geometry" />
        </mxCell>
        <mxCell id="XhaWbLBJsU4I6IuAYwKj-3" value="Amigo" style="whiteSpace=wrap;html=1;align=center;" vertex="1" parent="1">
          <mxGeometry x="140" y="570" width="100" height="40" as="geometry" />
        </mxCell>
        <mxCell id="XhaWbLBJsU4I6IuAYwKj-54" style="edgeStyle=none;rounded=0;orthogonalLoop=1;jettySize=auto;html=1;exitX=0.5;exitY=0;exitDx=0;exitDy=0;entryX=0.5;entryY=1;entryDx=0;entryDy=0;endArrow=none;endFill=0;" edge="1" parent="1" source="XhaWbLBJsU4I6IuAYwKj-4" target="XhaWbLBJsU4I6IuAYwKj-47">
          <mxGeometry relative="1" as="geometry" />
        </mxCell>
        <mxCell id="XhaWbLBJsU4I6IuAYwKj-4" value="Comentario" style="whiteSpace=wrap;html=1;align=center;" vertex="1" parent="1">
          <mxGeometry x="570" y="430" width="100" height="40" as="geometry" />
        </mxCell>
        <mxCell id="XhaWbLBJsU4I6IuAYwKj-34" style="edgeStyle=orthogonalEdgeStyle;rounded=0;orthogonalLoop=1;jettySize=auto;html=1;exitX=1;exitY=1;exitDx=0;exitDy=0;entryX=0;entryY=0.25;entryDx=0;entryDy=0;endArrow=none;endFill=0;" edge="1" parent="1" source="XhaWbLBJsU4I6IuAYwKj-5" target="XhaWbLBJsU4I6IuAYwKj-1">
          <mxGeometry relative="1" as="geometry" />
        </mxCell>
        <mxCell id="XhaWbLBJsU4I6IuAYwKj-5" value="DNI" style="ellipse;whiteSpace=wrap;html=1;align=center;" vertex="1" parent="1">
          <mxGeometry x="30" y="180" width="100" height="40" as="geometry" />
        </mxCell>
        <mxCell id="XhaWbLBJsU4I6IuAYwKj-32" style="edgeStyle=orthogonalEdgeStyle;rounded=0;orthogonalLoop=1;jettySize=auto;html=1;exitX=1;exitY=1;exitDx=0;exitDy=0;entryX=0.25;entryY=0;entryDx=0;entryDy=0;endArrow=none;endFill=0;" edge="1" parent="1" source="XhaWbLBJsU4I6IuAYwKj-6" target="XhaWbLBJsU4I6IuAYwKj-1">
          <mxGeometry relative="1" as="geometry" />
        </mxCell>
        <mxCell id="XhaWbLBJsU4I6IuAYwKj-6" value="Nombre" style="ellipse;whiteSpace=wrap;html=1;align=center;" vertex="1" parent="1">
          <mxGeometry x="100" y="130" width="100" height="40" as="geometry" />
        </mxCell>
        <mxCell id="XhaWbLBJsU4I6IuAYwKj-37" style="edgeStyle=orthogonalEdgeStyle;rounded=0;orthogonalLoop=1;jettySize=auto;html=1;exitX=1;exitY=0;exitDx=0;exitDy=0;entryX=0.25;entryY=1;entryDx=0;entryDy=0;endArrow=none;endFill=0;" edge="1" parent="1" source="XhaWbLBJsU4I6IuAYwKj-7" target="XhaWbLBJsU4I6IuAYwKj-1">
          <mxGeometry relative="1" as="geometry" />
        </mxCell>
        <mxCell id="XhaWbLBJsU4I6IuAYwKj-7" value="Teléfono" style="ellipse;whiteSpace=wrap;html=1;align=center;" vertex="1" parent="1">
          <mxGeometry x="100" y="330" width="100" height="40" as="geometry" />
        </mxCell>
        <mxCell id="XhaWbLBJsU4I6IuAYwKj-30" style="edgeStyle=orthogonalEdgeStyle;rounded=0;orthogonalLoop=1;jettySize=auto;html=1;exitX=0.5;exitY=0;exitDx=0;exitDy=0;entryX=0.5;entryY=1;entryDx=0;entryDy=0;endArrow=none;endFill=0;" edge="1" parent="1" source="XhaWbLBJsU4I6IuAYwKj-66" target="XhaWbLBJsU4I6IuAYwKj-9">
          <mxGeometry relative="1" as="geometry">
            <mxPoint x="305.35533905932743" y="155.85786437626905" as="sourcePoint" />
          </mxGeometry>
        </mxCell>
        <mxCell id="XhaWbLBJsU4I6IuAYwKj-31" style="edgeStyle=orthogonalEdgeStyle;rounded=0;orthogonalLoop=1;jettySize=auto;html=1;exitX=0;exitY=0;exitDx=0;exitDy=0;entryX=1;entryY=1;entryDx=0;entryDy=0;endArrow=none;endFill=0;" edge="1" parent="1" source="XhaWbLBJsU4I6IuAYwKj-66" target="XhaWbLBJsU4I6IuAYwKj-10">
          <mxGeometry relative="1" as="geometry">
            <mxPoint x="234.64466094067257" y="155.85786437626905" as="sourcePoint" />
          </mxGeometry>
        </mxCell>
        <mxCell id="XhaWbLBJsU4I6IuAYwKj-33" style="edgeStyle=orthogonalEdgeStyle;rounded=0;orthogonalLoop=1;jettySize=auto;html=1;exitX=0;exitY=1;exitDx=0;exitDy=0;entryX=0.5;entryY=0;entryDx=0;entryDy=0;endArrow=none;endFill=0;" edge="1" parent="1" source="XhaWbLBJsU4I6IuAYwKj-66" target="XhaWbLBJsU4I6IuAYwKj-1">
          <mxGeometry relative="1" as="geometry">
            <mxPoint x="234.64466094067257" y="184.14213562373095" as="sourcePoint" />
          </mxGeometry>
        </mxCell>
        <mxCell id="XhaWbLBJsU4I6IuAYwKj-9" value="Alternativo" style="ellipse;whiteSpace=wrap;html=1;align=center;" vertex="1" parent="1">
          <mxGeometry x="280" y="40" width="100" height="40" as="geometry" />
        </mxCell>
        <mxCell id="XhaWbLBJsU4I6IuAYwKj-10" value="Principal" style="ellipse;whiteSpace=wrap;html=1;align=center;" vertex="1" parent="1">
          <mxGeometry x="150" y="40" width="100" height="40" as="geometry" />
        </mxCell>
        <mxCell id="XhaWbLBJsU4I6IuAYwKj-35" value="" style="edgeStyle=orthogonalEdgeStyle;rounded=0;orthogonalLoop=1;jettySize=auto;html=1;endArrow=none;endFill=0;" edge="1" parent="1" source="XhaWbLBJsU4I6IuAYwKj-11" target="XhaWbLBJsU4I6IuAYwKj-1">
          <mxGeometry relative="1" as="geometry" />
        </mxCell>
        <mxCell id="XhaWbLBJsU4I6IuAYwKj-11" value="Estado" style="ellipse;whiteSpace=wrap;html=1;align=center;" vertex="1" parent="1">
          <mxGeometry x="10" y="250" width="100" height="40" as="geometry" />
        </mxCell>
        <mxCell id="XhaWbLBJsU4I6IuAYwKj-26" style="edgeStyle=orthogonalEdgeStyle;rounded=0;orthogonalLoop=1;jettySize=auto;html=1;exitX=0;exitY=0.5;exitDx=0;exitDy=0;entryX=1;entryY=0.75;entryDx=0;entryDy=0;endArrow=none;endFill=0;" edge="1" parent="1" source="XhaWbLBJsU4I6IuAYwKj-12" target="XhaWbLBJsU4I6IuAYwKj-2">
          <mxGeometry relative="1" as="geometry">
            <Array as="points">
              <mxPoint x="720" y="210" />
              <mxPoint x="720" y="230" />
            </Array>
          </mxGeometry>
        </mxCell>
        <mxCell id="XhaWbLBJsU4I6IuAYwKj-12" value="Cant.MG" style="ellipse;whiteSpace=wrap;html=1;align=center;" vertex="1" parent="1">
          <mxGeometry x="750" y="190" width="100" height="40" as="geometry" />
        </mxCell>
        <mxCell id="XhaWbLBJsU4I6IuAYwKj-29" style="edgeStyle=orthogonalEdgeStyle;rounded=0;orthogonalLoop=1;jettySize=auto;html=1;exitX=1;exitY=1;exitDx=0;exitDy=0;entryX=0.5;entryY=0;entryDx=0;entryDy=0;endArrow=none;endFill=0;" edge="1" parent="1" source="XhaWbLBJsU4I6IuAYwKj-13" target="XhaWbLBJsU4I6IuAYwKj-2">
          <mxGeometry relative="1" as="geometry" />
        </mxCell>
        <mxCell id="XhaWbLBJsU4I6IuAYwKj-13" value="Código ID" style="ellipse;whiteSpace=wrap;html=1;align=center;" vertex="1" parent="1">
          <mxGeometry x="540" y="90" width="100" height="40" as="geometry" />
        </mxCell>
        <mxCell id="XhaWbLBJsU4I6IuAYwKj-28" style="edgeStyle=orthogonalEdgeStyle;rounded=0;orthogonalLoop=1;jettySize=auto;html=1;exitX=0;exitY=1;exitDx=0;exitDy=0;entryX=0.75;entryY=0;entryDx=0;entryDy=0;endArrow=none;endFill=0;" edge="1" parent="1" source="XhaWbLBJsU4I6IuAYwKj-14" target="XhaWbLBJsU4I6IuAYwKj-2">
          <mxGeometry relative="1" as="geometry" />
        </mxCell>
        <mxCell id="XhaWbLBJsU4I6IuAYwKj-14" value="Contenido" style="ellipse;whiteSpace=wrap;html=1;align=center;" vertex="1" parent="1">
          <mxGeometry x="650" y="70" width="100" height="40" as="geometry" />
        </mxCell>
        <mxCell id="XhaWbLBJsU4I6IuAYwKj-27" style="edgeStyle=orthogonalEdgeStyle;rounded=0;orthogonalLoop=1;jettySize=auto;html=1;exitX=0;exitY=0.5;exitDx=0;exitDy=0;entryX=1;entryY=0.25;entryDx=0;entryDy=0;endArrow=none;endFill=0;" edge="1" parent="1" source="XhaWbLBJsU4I6IuAYwKj-15" target="XhaWbLBJsU4I6IuAYwKj-2">
          <mxGeometry relative="1" as="geometry" />
        </mxCell>
        <mxCell id="XhaWbLBJsU4I6IuAYwKj-15" value="Fecha y Hora" style="ellipse;whiteSpace=wrap;html=1;align=center;" vertex="1" parent="1">
          <mxGeometry x="750" y="120" width="100" height="40" as="geometry" />
        </mxCell>
        <mxCell id="XhaWbLBJsU4I6IuAYwKj-25" style="edgeStyle=orthogonalEdgeStyle;rounded=0;orthogonalLoop=1;jettySize=auto;html=1;exitX=0;exitY=0.5;exitDx=0;exitDy=0;entryX=0.75;entryY=1;entryDx=0;entryDy=0;endArrow=none;endFill=0;" edge="1" parent="1" source="XhaWbLBJsU4I6IuAYwKj-16" target="XhaWbLBJsU4I6IuAYwKj-2">
          <mxGeometry relative="1" as="geometry" />
        </mxCell>
        <mxCell id="XhaWbLBJsU4I6IuAYwKj-16" value="Cant.Coment." style="ellipse;whiteSpace=wrap;html=1;align=center;" vertex="1" parent="1">
          <mxGeometry x="740" y="260" width="100" height="40" as="geometry" />
        </mxCell>
        <mxCell id="XhaWbLBJsU4I6IuAYwKj-21" style="edgeStyle=orthogonalEdgeStyle;rounded=0;orthogonalLoop=1;jettySize=auto;html=1;exitX=1;exitY=0;exitDx=0;exitDy=0;entryX=0.25;entryY=1;entryDx=0;entryDy=0;endArrow=none;endFill=0;" edge="1" parent="1" source="XhaWbLBJsU4I6IuAYwKj-17" target="XhaWbLBJsU4I6IuAYwKj-4">
          <mxGeometry relative="1" as="geometry" />
        </mxCell>
        <mxCell id="XhaWbLBJsU4I6IuAYwKj-17" value="Fecha y Hora" style="ellipse;whiteSpace=wrap;html=1;align=center;" vertex="1" parent="1">
          <mxGeometry x="490" y="550" width="100" height="40" as="geometry" />
        </mxCell>
        <mxCell id="XhaWbLBJsU4I6IuAYwKj-23" style="edgeStyle=orthogonalEdgeStyle;rounded=0;orthogonalLoop=1;jettySize=auto;html=1;exitX=0;exitY=0;exitDx=0;exitDy=0;entryX=0.75;entryY=1;entryDx=0;entryDy=0;endArrow=none;endFill=0;" edge="1" parent="1" source="XhaWbLBJsU4I6IuAYwKj-18" target="XhaWbLBJsU4I6IuAYwKj-4">
          <mxGeometry relative="1" as="geometry" />
        </mxCell>
        <mxCell id="XhaWbLBJsU4I6IuAYwKj-18" value="Cant.MG" style="ellipse;whiteSpace=wrap;html=1;align=center;" vertex="1" parent="1">
          <mxGeometry x="710" y="510" width="100" height="40" as="geometry" />
        </mxCell>
        <mxCell id="XhaWbLBJsU4I6IuAYwKj-24" style="edgeStyle=orthogonalEdgeStyle;rounded=0;orthogonalLoop=1;jettySize=auto;html=1;exitX=0;exitY=0.5;exitDx=0;exitDy=0;entryX=1;entryY=0.5;entryDx=0;entryDy=0;endArrow=none;endFill=0;" edge="1" parent="1" source="XhaWbLBJsU4I6IuAYwKj-19" target="XhaWbLBJsU4I6IuAYwKj-4">
          <mxGeometry relative="1" as="geometry" />
        </mxCell>
        <mxCell id="XhaWbLBJsU4I6IuAYwKj-19" value="Código ID" style="ellipse;whiteSpace=wrap;html=1;align=center;" vertex="1" parent="1">
          <mxGeometry x="730" y="430" width="100" height="40" as="geometry" />
        </mxCell>
        <mxCell id="XhaWbLBJsU4I6IuAYwKj-22" style="edgeStyle=orthogonalEdgeStyle;rounded=0;orthogonalLoop=1;jettySize=auto;html=1;exitX=0;exitY=0;exitDx=0;exitDy=0;entryX=0.5;entryY=1;entryDx=0;entryDy=0;endArrow=none;endFill=0;" edge="1" parent="1" source="XhaWbLBJsU4I6IuAYwKj-20" target="XhaWbLBJsU4I6IuAYwKj-4">
          <mxGeometry relative="1" as="geometry" />
        </mxCell>
        <mxCell id="XhaWbLBJsU4I6IuAYwKj-20" value="Contenido" style="ellipse;whiteSpace=wrap;html=1;align=center;" vertex="1" parent="1">
          <mxGeometry x="620" y="550" width="100" height="40" as="geometry" />
        </mxCell>
        <mxCell id="XhaWbLBJsU4I6IuAYwKj-43" style="edgeStyle=orthogonalEdgeStyle;rounded=0;orthogonalLoop=1;jettySize=auto;html=1;exitX=1;exitY=0;exitDx=0;exitDy=0;entryX=0.25;entryY=1;entryDx=0;entryDy=0;endArrow=none;endFill=0;" edge="1" parent="1" source="XhaWbLBJsU4I6IuAYwKj-38" target="XhaWbLBJsU4I6IuAYwKj-3">
          <mxGeometry relative="1" as="geometry">
            <Array as="points">
              <mxPoint x="125" y="630" />
              <mxPoint x="165" y="630" />
            </Array>
          </mxGeometry>
        </mxCell>
        <mxCell id="XhaWbLBJsU4I6IuAYwKj-38" value="Código ID" style="ellipse;whiteSpace=wrap;html=1;align=center;" vertex="1" parent="1">
          <mxGeometry x="40" y="630" width="100" height="40" as="geometry" />
        </mxCell>
        <mxCell id="XhaWbLBJsU4I6IuAYwKj-42" value="" style="edgeStyle=orthogonalEdgeStyle;rounded=0;orthogonalLoop=1;jettySize=auto;html=1;endArrow=none;endFill=0;" edge="1" parent="1" source="XhaWbLBJsU4I6IuAYwKj-39" target="XhaWbLBJsU4I6IuAYwKj-3">
          <mxGeometry relative="1" as="geometry" />
        </mxCell>
        <mxCell id="XhaWbLBJsU4I6IuAYwKj-39" value="Fecha y Hora" style="ellipse;whiteSpace=wrap;html=1;align=center;" vertex="1" parent="1">
          <mxGeometry x="140" y="660" width="100" height="40" as="geometry" />
        </mxCell>
        <mxCell id="XhaWbLBJsU4I6IuAYwKj-41" style="edgeStyle=orthogonalEdgeStyle;rounded=0;orthogonalLoop=1;jettySize=auto;html=1;exitX=0;exitY=0.5;exitDx=0;exitDy=0;entryX=0.75;entryY=1;entryDx=0;entryDy=0;endArrow=none;endFill=0;" edge="1" parent="1" source="XhaWbLBJsU4I6IuAYwKj-40" target="XhaWbLBJsU4I6IuAYwKj-3">
          <mxGeometry relative="1" as="geometry" />
        </mxCell>
        <mxCell id="XhaWbLBJsU4I6IuAYwKj-40" value="Cant.Interacción" style="ellipse;whiteSpace=wrap;html=1;align=center;" vertex="1" parent="1">
          <mxGeometry x="260" y="630" width="100" height="40" as="geometry" />
        </mxCell>
        <mxCell id="XhaWbLBJsU4I6IuAYwKj-50" style="edgeStyle=none;rounded=0;orthogonalLoop=1;jettySize=auto;html=1;exitX=0.5;exitY=0;exitDx=0;exitDy=0;entryX=0.75;entryY=1;entryDx=0;entryDy=0;endArrow=none;endFill=0;" edge="1" parent="1" source="XhaWbLBJsU4I6IuAYwKj-44" target="XhaWbLBJsU4I6IuAYwKj-1">
          <mxGeometry relative="1" as="geometry" />
        </mxCell>
        <mxCell id="XhaWbLBJsU4I6IuAYwKj-51" style="edgeStyle=none;rounded=0;orthogonalLoop=1;jettySize=auto;html=1;exitX=0.5;exitY=1;exitDx=0;exitDy=0;entryX=0.5;entryY=0;entryDx=0;entryDy=0;endArrow=none;endFill=0;" edge="1" parent="1" source="XhaWbLBJsU4I6IuAYwKj-44" target="XhaWbLBJsU4I6IuAYwKj-3">
          <mxGeometry relative="1" as="geometry" />
        </mxCell>
        <mxCell id="XhaWbLBJsU4I6IuAYwKj-44" value="Tiene" style="shape=rhombus;perimeter=rhombusPerimeter;whiteSpace=wrap;html=1;align=center;" vertex="1" parent="1">
          <mxGeometry x="160" y="410" width="100" height="50" as="geometry" />
        </mxCell>
        <mxCell id="XhaWbLBJsU4I6IuAYwKj-49" style="edgeStyle=none;rounded=0;orthogonalLoop=1;jettySize=auto;html=1;exitX=1;exitY=0.5;exitDx=0;exitDy=0;entryX=0;entryY=0.5;entryDx=0;entryDy=0;endArrow=none;endFill=0;" edge="1" parent="1" source="XhaWbLBJsU4I6IuAYwKj-45" target="XhaWbLBJsU4I6IuAYwKj-2">
          <mxGeometry relative="1" as="geometry" />
        </mxCell>
        <mxCell id="XhaWbLBJsU4I6IuAYwKj-45" value="Realiza" style="shape=rhombus;perimeter=rhombusPerimeter;whiteSpace=wrap;html=1;align=center;" vertex="1" parent="1">
          <mxGeometry x="380" y="210" width="90" height="50" as="geometry" />
        </mxCell>
        <mxCell id="XhaWbLBJsU4I6IuAYwKj-53" style="edgeStyle=none;rounded=0;orthogonalLoop=1;jettySize=auto;html=1;exitX=1;exitY=1;exitDx=0;exitDy=0;entryX=0;entryY=0;entryDx=0;entryDy=0;endArrow=none;endFill=0;" edge="1" parent="1" source="XhaWbLBJsU4I6IuAYwKj-46" target="XhaWbLBJsU4I6IuAYwKj-4">
          <mxGeometry relative="1" as="geometry" />
        </mxCell>
        <mxCell id="XhaWbLBJsU4I6IuAYwKj-46" value="Realiza" style="shape=rhombus;perimeter=rhombusPerimeter;whiteSpace=wrap;html=1;align=center;" vertex="1" parent="1">
          <mxGeometry x="365" y="370" width="95" height="40" as="geometry" />
        </mxCell>
        <mxCell id="XhaWbLBJsU4I6IuAYwKj-55" style="edgeStyle=none;rounded=0;orthogonalLoop=1;jettySize=auto;html=1;exitX=0;exitY=0;exitDx=0;exitDy=0;entryX=0.25;entryY=1;entryDx=0;entryDy=0;endArrow=none;endFill=0;" edge="1" parent="1" source="XhaWbLBJsU4I6IuAYwKj-47" target="XhaWbLBJsU4I6IuAYwKj-2">
          <mxGeometry relative="1" as="geometry" />
        </mxCell>
        <mxCell id="XhaWbLBJsU4I6IuAYwKj-47" value="Tiene" style="shape=rhombus;perimeter=rhombusPerimeter;whiteSpace=wrap;html=1;align=center;" vertex="1" parent="1">
          <mxGeometry x="560" y="310" width="110" height="50" as="geometry" />
        </mxCell>
        <mxCell id="XhaWbLBJsU4I6IuAYwKj-56" value="1..1" style="text;html=1;align=center;verticalAlign=middle;resizable=0;points=[];autosize=1;strokeColor=none;fillColor=none;" vertex="1" parent="1">
          <mxGeometry x="240" y="328" width="40" height="30" as="geometry" />
        </mxCell>
        <mxCell id="XhaWbLBJsU4I6IuAYwKj-57" value="1..1" style="text;html=1;align=center;verticalAlign=middle;resizable=0;points=[];autosize=1;strokeColor=none;fillColor=none;" vertex="1" parent="1">
          <mxGeometry x="340" y="318" width="40" height="30" as="geometry" />
        </mxCell>
        <mxCell id="XhaWbLBJsU4I6IuAYwKj-58" value="0...n" style="text;html=1;align=center;verticalAlign=middle;resizable=0;points=[];autosize=1;strokeColor=none;fillColor=none;" vertex="1" parent="1">
          <mxGeometry x="205" y="528" width="50" height="30" as="geometry" />
        </mxCell>
        <mxCell id="XhaWbLBJsU4I6IuAYwKj-59" value="0...n" style="text;html=1;align=center;verticalAlign=middle;resizable=0;points=[];autosize=1;strokeColor=none;fillColor=none;" vertex="1" parent="1">
          <mxGeometry x="515" y="428" width="50" height="30" as="geometry" />
        </mxCell>
        <mxCell id="XhaWbLBJsU4I6IuAYwKj-60" value="1..1" style="text;html=1;align=center;verticalAlign=middle;resizable=0;points=[];autosize=1;strokeColor=none;fillColor=none;" vertex="1" parent="1">
          <mxGeometry x="590" y="250" width="40" height="30" as="geometry" />
        </mxCell>
        <mxCell id="XhaWbLBJsU4I6IuAYwKj-61" value="0...n" style="text;html=1;align=center;verticalAlign=middle;resizable=0;points=[];autosize=1;strokeColor=none;fillColor=none;" vertex="1" parent="1">
          <mxGeometry x="615" y="378" width="50" height="30" as="geometry" />
        </mxCell>
        <mxCell id="XhaWbLBJsU4I6IuAYwKj-62" value="1...1" style="text;html=1;align=center;verticalAlign=middle;resizable=0;points=[];autosize=1;strokeColor=none;fillColor=none;" vertex="1" parent="1">
          <mxGeometry x="275" y="218" width="50" height="30" as="geometry" />
        </mxCell>
        <mxCell id="XhaWbLBJsU4I6IuAYwKj-63" value="0...n" style="text;html=1;align=center;verticalAlign=middle;resizable=0;points=[];autosize=1;strokeColor=none;fillColor=none;" vertex="1" parent="1">
          <mxGeometry x="505" y="188" width="50" height="30" as="geometry" />
        </mxCell>
        <mxCell id="XhaWbLBJsU4I6IuAYwKj-66" value="Correo" style="ellipse;whiteSpace=wrap;html=1;align=center;" vertex="1" parent="1">
          <mxGeometry x="230" y="150" width="100" height="40" as="geometry" />
        </mxCell>
      </root>
    </mxGraphModel>
  </diagram>
</mxfile>
